<?xml version="1.0" standalone="no"?>
<!DOCTYPE svg PUBLIC "-//W3C//DTD SVG 20010904//EN"
 "http://www.w3.org/TR/2001/REC-SVG-20010904/DTD/svg10.dtd">
<svg version="1.0" xmlns="http://www.w3.org/2000/svg"
 width="100" height="200" viewBox="0 0 750.000000 1280.000000"
 preserveAspectRatio="xMidYMid meet">
<metadata>

</metadata>
<g transform="translate(0.000000,1280.000000) scale(0.100000,-0.100000)"
fill="#000000" stroke="none">
<path d="M4319 12791 c-50 -16 -75 -34 -150 -108 l-76 -75 -137 12 c-178 15
-294 2 -383 -41 l-62 -30 -49 31 c-80 49 -232 117 -302 135 -99 26 -205 23
-271 -7 -108 -49 -168 -125 -260 -326 -55 -122 -56 -124 -107 -147 -127 -59
-346 -230 -508 -397 l-112 -115 -103 -7 c-139 -10 -184 -22 -214 -58 -48 -57
-28 -161 64 -332 l49 -91 -18 -95 c-45 -233 -55 -355 -55 -665 0 -193 5 -334
13 -395 76 -551 249 -1016 547 -1476 l53 -81 -74 -99 c-142 -190 -204 -341
-209 -514 -3 -90 -8 -114 -32 -167 -25 -54 -37 -67 -93 -104 -159 -102 -295
-232 -402 -384 l-36 -50 -5 -190 c-9 -300 -81 -701 -161 -889 l-16 -38 -67 6
c-262 26 -434 89 -839 307 -121 65 -226 119 -232 119 -13 0 -48 -149 -62 -265
-65 -577 182 -1199 761 -1917 l78 -96 16 -94 c46 -268 133 -548 230 -745 63
-126 64 -128 45 -148 -46 -49 -50 -105 -14 -185 l26 -57 -26 -51 c-154 -304
-232 -703 -206 -1054 6 -79 15 -169 21 -201 l10 -58 -36 -41 c-81 -89 -135
-244 -174 -497 -16 -110 -17 -121 -2 -121 9 0 1441 -1 3184 -2 2811 -3 3167
-1 3164 12 -1 9 9 20 25 27 16 7 31 19 34 27 3 8 -16 56 -42 107 -144 279
-402 496 -613 516 -31 3 -65 11 -76 18 -34 21 -68 24 -134 15 -57 -8 -69 -6
-120 16 -146 65 -348 90 -530 65 l-89 -12 -94 78 c-170 143 -440 330 -634 441
l-81 46 67 140 c170 354 241 609 227 816 -14 223 -96 381 -330 641 l-95 107
48 111 48 112 42 -78 c87 -161 193 -297 349 -445 90 -85 100 -99 116 -153 43
-152 147 -286 293 -381 48 -32 105 -69 127 -83 66 -44 165 -142 227 -225 125
-167 196 -366 258 -715 11 -63 23 -117 26 -120 3 -3 14 5 25 19 38 49 82 154
107 259 14 58 26 107 27 108 1 2 66 -62 146 -141 138 -137 198 -184 219 -171
6 3 10 34 10 68 0 158 -129 565 -294 928 -36 81 -66 156 -66 168 0 39 -31 175
-50 218 -13 30 -15 43 -7 43 27 -1 204 -104 329 -191 73 -52 259 -191 414
-310 321 -248 449 -339 476 -339 33 0 24 106 -21 240 -131 387 -412 820 -707
1090 -46 42 -105 109 -134 152 -177 263 -482 553 -1015 962 -442 341 -607 478
-793 661 l-122 122 14 34 c41 100 23 254 -51 439 -46 114 -46 115 -28 145 51
87 148 279 166 331 27 79 49 193 49 259 0 123 -46 276 -122 407 -38 67 -140
201 -171 227 -9 7 -17 17 -17 22 0 16 576 357 745 441 l70 35 825 58 825 58
33 36 c93 100 233 361 277 515 14 48 25 97 25 107 0 16 8 19 44 19 51 0 45
-12 71 153 54 344 77 739 56 977 -12 136 -41 323 -61 393 -17 57 -58 85 -790
532 -237 145 -550 348 -611 396 l-36 28 -6 103 c-8 125 -43 273 -92 389 l-36
87 -402 193 c-221 107 -438 213 -482 237 -156 83 -321 161 -400 187 -84 28
-211 41 -256 26z m-759 -9741 c30 -41 73 -99 96 -129 l42 -54 -19 -50 c-11
-27 -26 -61 -33 -75 l-13 -25 -51 75 c-57 85 -150 202 -211 267 -22 24 -41 46
-41 47 0 2 13 10 30 19 54 28 70 87 45 160 -4 11 17 -20 47 -70 30 -49 78
-124 108 -165z m-619 -471 c162 -112 505 -443 495 -477 -15 -48 -46 -257 -48
-324 l-3 -76 -50 5 c-104 10 -483 123 -561 167 l-39 22 1 124 c1 69 9 167 17
219 17 101 96 391 107 391 3 0 40 -23 81 -51z"/>

</g>
</svg>
